<?xml version="1.0" encoding="UTF-8" standalone="no"?>
<!DOCTYPE svg PUBLIC "-//W3C//DTD SVG 1.1//EN" "http://www.w3.org/Graphics/SVG/1.1/DTD/svg11.dtd">
<svg width="100%" height="100%" viewBox="0 0 887 688" version="1.1" xmlns="http://www.w3.org/2000/svg" xmlns:xlink="http://www.w3.org/1999/xlink" xml:space="preserve" xmlns:serif="http://www.serif.com/" style="fill-rule:evenodd;clip-rule:evenodd;stroke-linejoin:round;stroke-miterlimit:2;">
    <g>
        <rect x="0" y="0" width="887.695" height="688.77" style="fill-opacity:0;"/>
        <path d="M113.965,688.77L773.438,688.77C849.316,688.77 887.695,650.391 887.695,575.977L887.695,113.086C887.695,38.379 849.316,0 773.438,0L113.965,0C38.379,0 0,38.086 0,113.086L0,575.977C0,650.977 38.379,688.77 113.965,688.77ZM115.137,636.914C74.121,636.914 51.856,615.234 51.856,573.047L51.856,115.723C51.856,73.828 74.121,51.856 115.137,51.856L772.559,51.856C812.695,51.856 835.547,73.828 835.547,115.723L835.547,573.047C835.547,615.234 812.695,636.914 772.559,636.914L115.137,636.914Z" style="fill:rgb(0,123,255);fill-opacity:0.85;fill-rule:nonzero;"/>
        <path d="M160.547,505.371L375,505.371C410.742,505.371 428.32,487.5 428.32,452.93L428.32,236.426C428.32,202.148 410.742,184.277 375,184.277L160.547,184.277C125.098,184.277 107.227,201.855 107.227,236.426L107.227,452.93C107.227,487.793 125.098,505.371 160.547,505.371ZM151.172,473.145C160.254,439.746 200.977,401.953 268.066,401.953C334.863,401.953 375.879,439.746 384.668,473.145L151.172,473.145ZM267.773,374.414C234.375,374.414 207.715,345.996 207.715,308.789C207.715,273.047 234.375,244.629 267.773,244.629C301.172,244.629 327.832,273.047 327.832,308.789C327.832,345.996 301.172,374.414 267.773,374.414ZM631.348,501.855C657.129,501.855 680.273,499.512 694.043,493.945C703.125,490.137 708.398,484.277 708.398,475.781C708.398,467.285 702.539,460.84 693.457,460.84C689.355,460.84 685.547,461.719 679.395,462.891C668.555,464.648 657.422,468.457 634.57,468.457C558.398,468.457 510.352,420.703 510.352,345.117C510.352,271.582 559.57,220.312 630.762,220.312C701.074,220.312 748.828,265.137 748.828,331.348C748.828,372.949 736.523,397.266 716.016,397.266C702.539,397.266 696.387,390.527 696.387,375.879L696.387,280.078C696.387,269.824 689.355,262.207 679.688,262.207C672.07,262.207 665.039,267.773 663.281,274.805L663.281,280.371C653.906,268.945 640.137,262.207 621.68,262.207C581.25,262.207 552.832,297.07 552.832,345.703C552.832,395.801 581.25,429.492 622.559,429.492C641.895,429.492 658.301,420.996 669.141,405.176C677.344,420.703 693.457,429.785 713.379,429.785C755.273,429.785 782.227,390.527 782.227,329.59C782.227,245.801 719.824,187.207 630.762,187.207C538.77,187.207 474.902,251.953 474.902,344.824C474.902,438.574 537.891,501.855 631.348,501.855ZM626.953,395.801C604.102,395.801 589.746,376.465 589.746,345.117C589.746,314.355 604.688,295.02 627.246,295.02C650.098,295.02 664.16,313.477 664.16,343.945C664.16,375.879 650.098,395.801 626.953,395.801Z" style="fill:rgb(0,123,255);fill-opacity:0.85;fill-rule:nonzero;"/>
    </g>
</svg>
